<svg width="900" height="1064" viewBox="0 0 900 1064" fill="none" xmlns="http://www.w3.org/2000/svg">
<path opacity="0.1" fill-rule="evenodd" clip-rule="evenodd" d="M630.071 -142.746C769.069 -165.885 899.108 -313.939 1026.98 -254.688C1153.89 -195.881 1134.92 -7.64344 1194.67 118.87C1252.72 241.778 1375.69 339.256 1371.66 475.125C1367.43 617.287 1281.34 748.607 1173.21 840.938C1069.28 929.692 930.511 960.142 794.1 968.324C667.135 975.939 529.032 966.753 431.18 885.445C339.638 809.38 364.669 663.523 304.016 561.098C235.11 444.735 70.7822 386.902 56.3289 252.434C41.2421 112.071 114.361 -42.0599 230.582 -122.11C343.158 -199.65 495.241 -120.301 630.071 -142.746Z" fill="#D9F4FF"/>
</svg>
